<mxfile host="app.diagrams.net" modified="2024-07-17T19:06:11.403Z" agent="Mozilla/5.0 (Macintosh; Intel Mac OS X 10_15_7) AppleWebKit/537.36 (KHTML, like Gecko) Chrome/126.0.0.0 Safari/537.36" etag="hzCITMAiS6oiAVrlpKgN" version="24.7.1" type="github">
  <diagram name="Page-1" id="Fa0bQ-jHsM6v-oD2tgcy">
    <mxGraphModel dx="1242" dy="758" grid="1" gridSize="10" guides="1" tooltips="1" connect="0" arrows="0" fold="1" page="1" pageScale="1" pageWidth="8000" pageHeight="2000" math="0" shadow="0">
      <root>
        <mxCell id="0" />
        <mxCell id="1" parent="0" />
        <mxCell id="6-QbLFjZhCQKoY5gVnMu-162" style="edgeStyle=orthogonalEdgeStyle;rounded=0;orthogonalLoop=1;jettySize=auto;html=1;entryX=0.5;entryY=0;entryDx=0;entryDy=0;strokeColor=#007FFF;endArrow=none;endFill=0;" edge="1" parent="1" source="6-QbLFjZhCQKoY5gVnMu-138" target="6-QbLFjZhCQKoY5gVnMu-142">
          <mxGeometry relative="1" as="geometry">
            <Array as="points">
              <mxPoint x="1540" y="950" />
              <mxPoint x="1098" y="950" />
            </Array>
          </mxGeometry>
        </mxCell>
        <mxCell id="6-QbLFjZhCQKoY5gVnMu-163" style="edgeStyle=orthogonalEdgeStyle;rounded=0;orthogonalLoop=1;jettySize=auto;html=1;entryX=0.5;entryY=0;entryDx=0;entryDy=0;strokeColor=#007FFF;endArrow=none;endFill=0;" edge="1" parent="1" source="6-QbLFjZhCQKoY5gVnMu-138" target="6-QbLFjZhCQKoY5gVnMu-145">
          <mxGeometry relative="1" as="geometry">
            <Array as="points">
              <mxPoint x="1540" y="950" />
              <mxPoint x="1268" y="950" />
            </Array>
          </mxGeometry>
        </mxCell>
        <mxCell id="6-QbLFjZhCQKoY5gVnMu-164" style="edgeStyle=orthogonalEdgeStyle;rounded=0;orthogonalLoop=1;jettySize=auto;html=1;strokeColor=#007FFF;endArrow=none;endFill=0;" edge="1" parent="1" source="6-QbLFjZhCQKoY5gVnMu-138" target="6-QbLFjZhCQKoY5gVnMu-148">
          <mxGeometry relative="1" as="geometry">
            <Array as="points">
              <mxPoint x="1540" y="950" />
              <mxPoint x="1438" y="950" />
            </Array>
          </mxGeometry>
        </mxCell>
        <mxCell id="6-QbLFjZhCQKoY5gVnMu-165" style="edgeStyle=orthogonalEdgeStyle;rounded=0;orthogonalLoop=1;jettySize=auto;html=1;strokeColor=#007FFF;endArrow=none;endFill=0;" edge="1" parent="1" source="6-QbLFjZhCQKoY5gVnMu-138" target="6-QbLFjZhCQKoY5gVnMu-151">
          <mxGeometry relative="1" as="geometry">
            <Array as="points">
              <mxPoint x="1540" y="950" />
              <mxPoint x="1608" y="950" />
            </Array>
          </mxGeometry>
        </mxCell>
        <mxCell id="6-QbLFjZhCQKoY5gVnMu-166" style="edgeStyle=orthogonalEdgeStyle;rounded=0;orthogonalLoop=1;jettySize=auto;html=1;strokeColor=#007FFF;endArrow=none;endFill=0;" edge="1" parent="1" source="6-QbLFjZhCQKoY5gVnMu-138" target="6-QbLFjZhCQKoY5gVnMu-154">
          <mxGeometry relative="1" as="geometry">
            <Array as="points">
              <mxPoint x="1540" y="950" />
              <mxPoint x="1778" y="950" />
            </Array>
          </mxGeometry>
        </mxCell>
        <mxCell id="6-QbLFjZhCQKoY5gVnMu-167" style="edgeStyle=orthogonalEdgeStyle;rounded=0;orthogonalLoop=1;jettySize=auto;html=1;exitX=0.5;exitY=1;exitDx=0;exitDy=0;strokeColor=#007FFF;endArrow=none;endFill=0;labelBorderColor=default;" edge="1" parent="1" source="6-QbLFjZhCQKoY5gVnMu-138" target="6-QbLFjZhCQKoY5gVnMu-157">
          <mxGeometry relative="1" as="geometry">
            <Array as="points">
              <mxPoint x="1540" y="836" />
              <mxPoint x="1540" y="950" />
              <mxPoint x="1948" y="950" />
            </Array>
          </mxGeometry>
        </mxCell>
        <mxCell id="6-QbLFjZhCQKoY5gVnMu-140" style="edgeStyle=orthogonalEdgeStyle;rounded=0;orthogonalLoop=1;jettySize=auto;html=1;strokeColor=#007FFF;endArrow=none;endFill=0;" edge="1" parent="1" source="6-QbLFjZhCQKoY5gVnMu-124" target="6-QbLFjZhCQKoY5gVnMu-138">
          <mxGeometry relative="1" as="geometry" />
        </mxCell>
        <mxCell id="6-QbLFjZhCQKoY5gVnMu-134" style="edgeStyle=orthogonalEdgeStyle;rounded=0;orthogonalLoop=1;jettySize=auto;html=1;entryX=0.5;entryY=0;entryDx=0;entryDy=0;strokeColor=#007FFF;endArrow=none;endFill=0;fontSize=14;" edge="1" parent="1" source="6-QbLFjZhCQKoY5gVnMu-95" target="6-QbLFjZhCQKoY5gVnMu-124">
          <mxGeometry relative="1" as="geometry">
            <Array as="points">
              <mxPoint x="1908" y="570" />
              <mxPoint x="1538" y="570" />
            </Array>
          </mxGeometry>
        </mxCell>
        <mxCell id="6-QbLFjZhCQKoY5gVnMu-135" style="edgeStyle=orthogonalEdgeStyle;rounded=0;orthogonalLoop=1;jettySize=auto;html=1;strokeColor=#007FFF;endArrow=none;endFill=0;fontSize=14;" edge="1" parent="1" source="6-QbLFjZhCQKoY5gVnMu-95" target="6-QbLFjZhCQKoY5gVnMu-127">
          <mxGeometry relative="1" as="geometry">
            <Array as="points">
              <mxPoint x="1908" y="520" />
              <mxPoint x="1908" y="520" />
            </Array>
          </mxGeometry>
        </mxCell>
        <mxCell id="6-QbLFjZhCQKoY5gVnMu-136" style="edgeStyle=orthogonalEdgeStyle;rounded=0;orthogonalLoop=1;jettySize=auto;html=1;entryX=0.5;entryY=0;entryDx=0;entryDy=0;strokeColor=#007FFF;endArrow=none;endFill=0;fontSize=14;" edge="1" parent="1" source="6-QbLFjZhCQKoY5gVnMu-95" target="6-QbLFjZhCQKoY5gVnMu-130">
          <mxGeometry relative="1" as="geometry">
            <Array as="points">
              <mxPoint x="1908" y="570" />
              <mxPoint x="2078" y="570" />
            </Array>
          </mxGeometry>
        </mxCell>
        <mxCell id="6-QbLFjZhCQKoY5gVnMu-122" style="edgeStyle=orthogonalEdgeStyle;rounded=0;orthogonalLoop=1;jettySize=auto;html=1;endArrow=none;endFill=0;strokeColor=#007FFF;fontSize=14;" edge="1" parent="1" source="6-QbLFjZhCQKoY5gVnMu-111" target="6-QbLFjZhCQKoY5gVnMu-119">
          <mxGeometry relative="1" as="geometry" />
        </mxCell>
        <mxCell id="6-QbLFjZhCQKoY5gVnMu-113" style="edgeStyle=orthogonalEdgeStyle;rounded=0;orthogonalLoop=1;jettySize=auto;html=1;endArrow=none;endFill=0;strokeColor=#007FFF;fontSize=14;" edge="1" parent="1" source="6-QbLFjZhCQKoY5gVnMu-104" target="6-QbLFjZhCQKoY5gVnMu-111">
          <mxGeometry relative="1" as="geometry">
            <Array as="points">
              <mxPoint x="1338" y="530" />
              <mxPoint x="1338" y="530" />
            </Array>
          </mxGeometry>
        </mxCell>
        <mxCell id="6-QbLFjZhCQKoY5gVnMu-106" style="edgeStyle=orthogonalEdgeStyle;rounded=0;orthogonalLoop=1;jettySize=auto;html=1;strokeColor=#007FFF;endArrow=none;endFill=0;entryX=0.5;entryY=0;entryDx=0;entryDy=0;fontSize=14;" edge="1" parent="1" source="6-QbLFjZhCQKoY5gVnMu-19" target="6-QbLFjZhCQKoY5gVnMu-104">
          <mxGeometry relative="1" as="geometry">
            <Array as="points">
              <mxPoint x="1986" y="400" />
              <mxPoint x="1338" y="400" />
            </Array>
          </mxGeometry>
        </mxCell>
        <mxCell id="6-QbLFjZhCQKoY5gVnMu-107" style="edgeStyle=orthogonalEdgeStyle;rounded=0;orthogonalLoop=1;jettySize=auto;html=1;strokeColor=#007FFF;endArrow=none;endFill=0;fontSize=14;" edge="1" parent="1" source="6-QbLFjZhCQKoY5gVnMu-19" target="6-QbLFjZhCQKoY5gVnMu-95">
          <mxGeometry relative="1" as="geometry">
            <Array as="points">
              <mxPoint x="1986" y="400" />
              <mxPoint x="1908" y="400" />
            </Array>
          </mxGeometry>
        </mxCell>
        <mxCell id="6-QbLFjZhCQKoY5gVnMu-108" style="edgeStyle=orthogonalEdgeStyle;rounded=0;orthogonalLoop=1;jettySize=auto;html=1;strokeColor=#007FFF;endArrow=none;endFill=0;fontSize=14;" edge="1" parent="1" source="6-QbLFjZhCQKoY5gVnMu-19" target="6-QbLFjZhCQKoY5gVnMu-98">
          <mxGeometry relative="1" as="geometry">
            <Array as="points">
              <mxPoint x="1986" y="400" />
              <mxPoint x="2078" y="400" />
            </Array>
          </mxGeometry>
        </mxCell>
        <mxCell id="6-QbLFjZhCQKoY5gVnMu-109" style="edgeStyle=orthogonalEdgeStyle;rounded=0;orthogonalLoop=1;jettySize=auto;html=1;strokeColor=#007FFF;endArrow=none;endFill=0;fontSize=14;" edge="1" parent="1" source="6-QbLFjZhCQKoY5gVnMu-19" target="6-QbLFjZhCQKoY5gVnMu-101">
          <mxGeometry relative="1" as="geometry">
            <Array as="points">
              <mxPoint x="1986" y="400" />
              <mxPoint x="2248" y="400" />
            </Array>
          </mxGeometry>
        </mxCell>
        <mxCell id="6-QbLFjZhCQKoY5gVnMu-87" style="edgeStyle=orthogonalEdgeStyle;rounded=0;orthogonalLoop=1;jettySize=auto;html=1;strokeColor=#007FFF;endArrow=none;endFill=0;fontSize=14;" edge="1" parent="1" source="6-QbLFjZhCQKoY5gVnMu-37" target="6-QbLFjZhCQKoY5gVnMu-85">
          <mxGeometry relative="1" as="geometry">
            <Array as="points">
              <mxPoint x="1049" y="740" />
              <mxPoint x="968" y="740" />
            </Array>
          </mxGeometry>
        </mxCell>
        <mxCell id="6-QbLFjZhCQKoY5gVnMu-88" style="edgeStyle=orthogonalEdgeStyle;rounded=0;orthogonalLoop=1;jettySize=auto;html=1;strokeColor=#007FFF;endArrow=none;endFill=0;fontSize=14;" edge="1" parent="1" source="6-QbLFjZhCQKoY5gVnMu-37" target="6-QbLFjZhCQKoY5gVnMu-82">
          <mxGeometry relative="1" as="geometry">
            <Array as="points">
              <mxPoint x="1049" y="740" />
              <mxPoint x="1138" y="740" />
            </Array>
          </mxGeometry>
        </mxCell>
        <mxCell id="6-QbLFjZhCQKoY5gVnMu-76" style="edgeStyle=orthogonalEdgeStyle;rounded=0;orthogonalLoop=1;jettySize=auto;html=1;strokeColor=#007FFF;endArrow=none;endFill=0;fontSize=14;" edge="1" parent="1" source="6-QbLFjZhCQKoY5gVnMu-35" target="6-QbLFjZhCQKoY5gVnMu-73">
          <mxGeometry relative="1" as="geometry" />
        </mxCell>
        <mxCell id="6-QbLFjZhCQKoY5gVnMu-77" style="edgeStyle=orthogonalEdgeStyle;rounded=0;orthogonalLoop=1;jettySize=auto;html=1;strokeColor=#007FFF;endArrow=none;endFill=0;fontSize=14;" edge="1" parent="1" source="6-QbLFjZhCQKoY5gVnMu-35" target="6-QbLFjZhCQKoY5gVnMu-70">
          <mxGeometry relative="1" as="geometry">
            <Array as="points">
              <mxPoint x="428" y="740" />
              <mxPoint x="597" y="740" />
            </Array>
          </mxGeometry>
        </mxCell>
        <mxCell id="6-QbLFjZhCQKoY5gVnMu-78" style="edgeStyle=orthogonalEdgeStyle;rounded=0;orthogonalLoop=1;jettySize=auto;html=1;strokeColor=#007FFF;endArrow=none;endFill=0;fontSize=14;" edge="1" parent="1" source="6-QbLFjZhCQKoY5gVnMu-35" target="6-QbLFjZhCQKoY5gVnMu-67">
          <mxGeometry relative="1" as="geometry">
            <Array as="points">
              <mxPoint x="428" y="740" />
              <mxPoint x="768" y="740" />
            </Array>
          </mxGeometry>
        </mxCell>
        <mxCell id="6-QbLFjZhCQKoY5gVnMu-79" style="edgeStyle=orthogonalEdgeStyle;rounded=0;orthogonalLoop=1;jettySize=auto;html=1;strokeColor=#007FFF;endArrow=none;endFill=0;fontSize=14;" edge="1" parent="1" source="6-QbLFjZhCQKoY5gVnMu-35" target="6-QbLFjZhCQKoY5gVnMu-64">
          <mxGeometry relative="1" as="geometry">
            <Array as="points">
              <mxPoint x="428" y="740" />
              <mxPoint x="258" y="740" />
            </Array>
          </mxGeometry>
        </mxCell>
        <mxCell id="6-QbLFjZhCQKoY5gVnMu-80" style="edgeStyle=orthogonalEdgeStyle;rounded=0;orthogonalLoop=1;jettySize=auto;html=1;strokeColor=#007FFF;endArrow=none;endFill=0;fontSize=14;" edge="1" parent="1" source="6-QbLFjZhCQKoY5gVnMu-35" target="6-QbLFjZhCQKoY5gVnMu-44">
          <mxGeometry relative="1" as="geometry">
            <Array as="points">
              <mxPoint x="428" y="740" />
              <mxPoint x="88" y="740" />
            </Array>
          </mxGeometry>
        </mxCell>
        <mxCell id="6-QbLFjZhCQKoY5gVnMu-28" style="edgeStyle=orthogonalEdgeStyle;rounded=0;orthogonalLoop=1;jettySize=auto;html=1;entryX=0.5;entryY=0;entryDx=0;entryDy=0;exitX=0.5;exitY=1;exitDx=0;exitDy=0;endArrow=none;endFill=0;strokeColor=#007FFF;fontSize=14;" edge="1" parent="1" source="6-QbLFjZhCQKoY5gVnMu-1" target="6-QbLFjZhCQKoY5gVnMu-22">
          <mxGeometry relative="1" as="geometry">
            <Array as="points">
              <mxPoint x="1985" y="221" />
              <mxPoint x="748" y="221" />
            </Array>
          </mxGeometry>
        </mxCell>
        <mxCell id="6-QbLFjZhCQKoY5gVnMu-31" style="edgeStyle=orthogonalEdgeStyle;rounded=0;orthogonalLoop=1;jettySize=auto;html=1;endArrow=none;endFill=0;strokeColor=#007FFF;fontSize=14;" edge="1" parent="1" source="6-QbLFjZhCQKoY5gVnMu-1" target="6-QbLFjZhCQKoY5gVnMu-19">
          <mxGeometry relative="1" as="geometry" />
        </mxCell>
        <mxCell id="6-QbLFjZhCQKoY5gVnMu-32" style="edgeStyle=orthogonalEdgeStyle;rounded=0;orthogonalLoop=1;jettySize=auto;html=1;endArrow=none;endFill=0;strokeColor=#007FFF;fontSize=14;" edge="1" parent="1" source="6-QbLFjZhCQKoY5gVnMu-1" target="6-QbLFjZhCQKoY5gVnMu-26">
          <mxGeometry relative="1" as="geometry">
            <Array as="points">
              <mxPoint x="1985" y="221" />
              <mxPoint x="2296" y="221" />
            </Array>
          </mxGeometry>
        </mxCell>
        <mxCell id="6-QbLFjZhCQKoY5gVnMu-39" style="edgeStyle=orthogonalEdgeStyle;rounded=0;orthogonalLoop=1;jettySize=auto;html=1;entryX=0.5;entryY=0;entryDx=0;entryDy=0;endArrow=none;endFill=0;strokeColor=#007FFF;fontSize=14;" edge="1" parent="1" source="6-QbLFjZhCQKoY5gVnMu-22" target="6-QbLFjZhCQKoY5gVnMu-33">
          <mxGeometry relative="1" as="geometry" />
        </mxCell>
        <mxCell id="6-QbLFjZhCQKoY5gVnMu-41" style="edgeStyle=orthogonalEdgeStyle;rounded=0;orthogonalLoop=1;jettySize=auto;html=1;entryX=0.5;entryY=0;entryDx=0;entryDy=0;endArrow=none;endFill=0;strokeColor=#007FFF;exitX=0.5;exitY=1;exitDx=0;exitDy=0;fontSize=14;" edge="1" parent="1" source="6-QbLFjZhCQKoY5gVnMu-33" target="6-QbLFjZhCQKoY5gVnMu-37">
          <mxGeometry relative="1" as="geometry">
            <Array as="points">
              <mxPoint x="748" y="574" />
              <mxPoint x="1049" y="574" />
            </Array>
          </mxGeometry>
        </mxCell>
        <mxCell id="6-QbLFjZhCQKoY5gVnMu-42" style="edgeStyle=orthogonalEdgeStyle;rounded=0;orthogonalLoop=1;jettySize=auto;html=1;endArrow=none;endFill=0;strokeColor=#007FFF;exitX=0.5;exitY=1;exitDx=0;exitDy=0;fontSize=14;" edge="1" parent="1" source="6-QbLFjZhCQKoY5gVnMu-33" target="6-QbLFjZhCQKoY5gVnMu-35">
          <mxGeometry relative="1" as="geometry">
            <Array as="points">
              <mxPoint x="748" y="574" />
              <mxPoint x="427" y="574" />
            </Array>
          </mxGeometry>
        </mxCell>
        <mxCell id="6-QbLFjZhCQKoY5gVnMu-55" value="" style="group;fontSize=14;strokeColor=default;fillColor=default;gradientColor=none;fillStyle=auto;labelBackgroundColor=none;labelBorderColor=none;textShadow=0;" vertex="1" connectable="0" parent="1">
          <mxGeometry x="350" y="612" width="155.67999999999995" height="94" as="geometry" />
        </mxCell>
        <mxCell id="6-QbLFjZhCQKoY5gVnMu-35" value="Khyamadhara / କ୍ଷମାଧର" style="rounded=1;whiteSpace=wrap;html=1;fillColor=#b0e3e6;strokeColor=#0e8088;fontStyle=1;fontSize=14;" vertex="1" parent="6-QbLFjZhCQKoY5gVnMu-55">
          <mxGeometry width="155.67567567567565" height="47" as="geometry" />
        </mxCell>
        <mxCell id="6-QbLFjZhCQKoY5gVnMu-36" value="Kanchan /&amp;nbsp;କଞ୍ଚନ" style="rounded=1;whiteSpace=wrap;html=1;fillColor=#FFDEFC;strokeColor=#ae4132;fontStyle=1;fontSize=14;" vertex="1" parent="6-QbLFjZhCQKoY5gVnMu-55">
          <mxGeometry x="0.004324324324329609" y="47" width="155.67567567567565" height="47" as="geometry" />
        </mxCell>
        <mxCell id="6-QbLFjZhCQKoY5gVnMu-56" value="" style="group;fontSize=14;" vertex="1" connectable="0" parent="1">
          <mxGeometry x="971" y="612" width="155.67999999999995" height="95" as="geometry" />
        </mxCell>
        <mxCell id="6-QbLFjZhCQKoY5gVnMu-37" value="Laba / ଲବ" style="rounded=1;whiteSpace=wrap;html=1;fillColor=#b0e3e6;strokeColor=#0e8088;fontStyle=1;fontSize=14;" vertex="1" parent="6-QbLFjZhCQKoY5gVnMu-56">
          <mxGeometry width="155.67567567567565" height="47.5" as="geometry" />
        </mxCell>
        <mxCell id="6-QbLFjZhCQKoY5gVnMu-38" value="Tara /&amp;nbsp;ତାରା" style="rounded=1;whiteSpace=wrap;html=1;fillColor=#FFDEFC;strokeColor=#ae4132;fontStyle=1;fontSize=14;" vertex="1" parent="6-QbLFjZhCQKoY5gVnMu-56">
          <mxGeometry x="0.004324324324329609" y="47.5" width="155.67567567567565" height="47.5" as="geometry" />
        </mxCell>
        <mxCell id="6-QbLFjZhCQKoY5gVnMu-57" value="" style="group;fontSize=14;" vertex="1" connectable="0" parent="1">
          <mxGeometry x="670" y="257" width="155.67999999999995" height="142.5" as="geometry" />
        </mxCell>
        <mxCell id="6-QbLFjZhCQKoY5gVnMu-22" value="Sreepati /&amp;nbsp;&amp;nbsp;ଶ୍ରୀପତି" style="rounded=1;whiteSpace=wrap;html=1;fillColor=#b0e3e6;strokeColor=#0e8088;fontStyle=1;fontSize=14;" vertex="1" parent="6-QbLFjZhCQKoY5gVnMu-57">
          <mxGeometry width="155.67567567567565" height="47.5" as="geometry" />
        </mxCell>
        <mxCell id="6-QbLFjZhCQKoY5gVnMu-23" value="Phulabati / ଫୁଲବତୀ" style="rounded=1;whiteSpace=wrap;html=1;fillColor=#FFDEFC;strokeColor=#ae4132;fontStyle=1;fontSize=14;" vertex="1" parent="6-QbLFjZhCQKoY5gVnMu-57">
          <mxGeometry x="0.004324324324329609" y="47.5" width="155.67567567567565" height="47.5" as="geometry" />
        </mxCell>
        <mxCell id="6-QbLFjZhCQKoY5gVnMu-24" value="Padmini / ପଦ୍ମିନୀ" style="rounded=1;whiteSpace=wrap;html=1;fillColor=#FFDEFC;strokeColor=#ae4132;fontStyle=1;fontSize=14;" vertex="1" parent="6-QbLFjZhCQKoY5gVnMu-57">
          <mxGeometry x="0.004324324324329609" y="95" width="155.67567567567565" height="47.5" as="geometry" />
        </mxCell>
        <mxCell id="6-QbLFjZhCQKoY5gVnMu-58" value="" style="group;fontSize=14;" vertex="1" connectable="0" parent="1">
          <mxGeometry x="670" y="440" width="155.67999999999995" height="95" as="geometry" />
        </mxCell>
        <mxCell id="6-QbLFjZhCQKoY5gVnMu-33" value="Chamaru / ଚମରୁ" style="rounded=1;whiteSpace=wrap;html=1;fillColor=#b0e3e6;strokeColor=#0e8088;fontStyle=1;fontSize=14;" vertex="1" parent="6-QbLFjZhCQKoY5gVnMu-58">
          <mxGeometry width="155.67567567567565" height="47.5" as="geometry" />
        </mxCell>
        <mxCell id="6-QbLFjZhCQKoY5gVnMu-34" value="Dayamati /&amp;nbsp;ଦୟାମତି" style="rounded=1;whiteSpace=wrap;html=1;fillColor=#FFDEFC;strokeColor=#ae4132;fontStyle=1;fontSize=14;" vertex="1" parent="6-QbLFjZhCQKoY5gVnMu-58">
          <mxGeometry x="0.004324324324329609" y="47.5" width="155.67567567567565" height="47.5" as="geometry" />
        </mxCell>
        <mxCell id="6-QbLFjZhCQKoY5gVnMu-59" value="" style="group;fontSize=14;" vertex="1" connectable="0" parent="1">
          <mxGeometry x="1908" y="91" width="153.95000000000016" height="95" as="geometry" />
        </mxCell>
        <mxCell id="6-QbLFjZhCQKoY5gVnMu-1" value="Prasad /&amp;nbsp;&lt;span style=&quot;background-color: initial; font-size: 14px;&quot;&gt;ପ୍ରସାଦ&lt;/span&gt;" style="rounded=1;whiteSpace=wrap;html=1;fillColor=#b0e3e6;strokeColor=#0e8088;fontStyle=1;fontSize=14;" vertex="1" parent="6-QbLFjZhCQKoY5gVnMu-59">
          <mxGeometry width="153.94594594594594" height="47.5" as="geometry" />
        </mxCell>
        <mxCell id="6-QbLFjZhCQKoY5gVnMu-3" value="Sapur /&amp;nbsp;&lt;span style=&quot;background-color: initial; font-size: 14px;&quot;&gt;ସପୁର&lt;/span&gt;" style="rounded=1;whiteSpace=wrap;html=1;fillColor=#FFDEFC;strokeColor=#ae4132;fontStyle=1;fontSize=14;" vertex="1" parent="6-QbLFjZhCQKoY5gVnMu-59">
          <mxGeometry x="0.0040540540542224335" y="47.5" width="153.94594594594594" height="47.5" as="geometry" />
        </mxCell>
        <mxCell id="6-QbLFjZhCQKoY5gVnMu-60" value="" style="group;fontSize=14;" vertex="1" connectable="0" parent="1">
          <mxGeometry x="2158" y="91" width="155.68000000000006" height="100" as="geometry" />
        </mxCell>
        <mxCell id="6-QbLFjZhCQKoY5gVnMu-6" value="Purastapa /&amp;nbsp;&lt;span style=&quot;background-color: initial; font-size: 14px;&quot;&gt;ପୁରସ୍ତପ&lt;/span&gt;" style="rounded=1;whiteSpace=wrap;html=1;fillColor=#b0e3e6;strokeColor=#0e8088;fontStyle=1;fontSize=14;" vertex="1" parent="6-QbLFjZhCQKoY5gVnMu-60">
          <mxGeometry width="155.67567567567568" height="50" as="geometry" />
        </mxCell>
        <mxCell id="6-QbLFjZhCQKoY5gVnMu-7" value="Paata /&amp;nbsp;&lt;span style=&quot;background-color: initial; font-size: 14px;&quot;&gt;ପାଟ&lt;/span&gt;" style="rounded=1;whiteSpace=wrap;html=1;fillColor=#FFDEFC;strokeColor=#ae4132;fontStyle=1;fontSize=14;" vertex="1" parent="6-QbLFjZhCQKoY5gVnMu-60">
          <mxGeometry x="0.004324324324329609" y="50" width="155.67567567567568" height="50" as="geometry" />
        </mxCell>
        <mxCell id="6-QbLFjZhCQKoY5gVnMu-61" value="" style="group;fontSize=14;" vertex="1" connectable="0" parent="1">
          <mxGeometry x="1908" y="257" width="156.67999999999995" height="95" as="geometry" />
        </mxCell>
        <mxCell id="6-QbLFjZhCQKoY5gVnMu-19" value="Ganesh Ram / ଗଣେଶ ରାମ" style="rounded=1;whiteSpace=wrap;html=1;fillColor=#b0e3e6;strokeColor=#0e8088;fontStyle=1;fontSize=14;" vertex="1" parent="6-QbLFjZhCQKoY5gVnMu-61">
          <mxGeometry width="155.67567567567565" height="47.5" as="geometry" />
        </mxCell>
        <mxCell id="6-QbLFjZhCQKoY5gVnMu-20" value="Bhukhai / ଭୁଖାଇ" style="rounded=1;whiteSpace=wrap;html=1;fillColor=#FFDEFC;strokeColor=#ae4132;fontStyle=1;fontSize=14;" vertex="1" parent="6-QbLFjZhCQKoY5gVnMu-61">
          <mxGeometry x="1.0043243243243296" y="47.5" width="155.67567567567565" height="47.5" as="geometry" />
        </mxCell>
        <mxCell id="6-QbLFjZhCQKoY5gVnMu-62" value="" style="group;fontSize=14;" vertex="1" connectable="0" parent="1">
          <mxGeometry x="2218" y="257" width="155.68000000000006" height="95" as="geometry" />
        </mxCell>
        <mxCell id="6-QbLFjZhCQKoY5gVnMu-26" value="Ghanashyam / ଘନଶ୍ୟାମ୍" style="rounded=1;whiteSpace=wrap;html=1;fillColor=#b0e3e6;strokeColor=#0e8088;fontStyle=1;container=0;fontSize=14;" vertex="1" parent="6-QbLFjZhCQKoY5gVnMu-62">
          <mxGeometry width="155.67567567567565" height="47.5" as="geometry" />
        </mxCell>
        <mxCell id="6-QbLFjZhCQKoY5gVnMu-27" value="Rambha / ରମ୍ଭା" style="rounded=1;whiteSpace=wrap;html=1;fillColor=#FFDEFC;strokeColor=#ae4132;fontStyle=1;container=0;fontSize=14;" vertex="1" parent="6-QbLFjZhCQKoY5gVnMu-62">
          <mxGeometry x="0.004324324324329609" y="47.5" width="155.67567567567565" height="47.5" as="geometry" />
        </mxCell>
        <mxCell id="6-QbLFjZhCQKoY5gVnMu-63" value="" style="group;fontSize=14;" vertex="1" connectable="0" parent="1">
          <mxGeometry x="180" y="785" width="155.67999999999995" height="95" as="geometry" />
        </mxCell>
        <mxCell id="6-QbLFjZhCQKoY5gVnMu-64" value="Barja / ବର୍ଜ" style="rounded=1;whiteSpace=wrap;html=1;fillColor=#b0e3e6;strokeColor=#0e8088;fontStyle=1;fontSize=14;" vertex="1" parent="6-QbLFjZhCQKoY5gVnMu-63">
          <mxGeometry width="155.67567567567565" height="47.5" as="geometry" />
        </mxCell>
        <mxCell id="6-QbLFjZhCQKoY5gVnMu-65" value="Swarjya /&amp;nbsp;ସ୍ୱର୍ଯ୍ୟ" style="rounded=1;whiteSpace=wrap;html=1;fillColor=#FFDEFC;strokeColor=#ae4132;fontStyle=1;fontSize=14;" vertex="1" parent="6-QbLFjZhCQKoY5gVnMu-63">
          <mxGeometry x="0.004324324324329609" y="47.5" width="155.67567567567565" height="47.5" as="geometry" />
        </mxCell>
        <mxCell id="6-QbLFjZhCQKoY5gVnMu-72" value="" style="group;fontSize=14;" vertex="1" connectable="0" parent="1">
          <mxGeometry x="350" y="785" width="155.67999999999995" height="95" as="geometry" />
        </mxCell>
        <mxCell id="6-QbLFjZhCQKoY5gVnMu-73" value="Dhananjaya / ଧନଞ୍ଜୟ" style="rounded=1;whiteSpace=wrap;html=1;fillColor=#b0e3e6;strokeColor=#0e8088;fontStyle=1;fontSize=14;" vertex="1" parent="6-QbLFjZhCQKoY5gVnMu-72">
          <mxGeometry width="155.67567567567565" height="47.5" as="geometry" />
        </mxCell>
        <mxCell id="6-QbLFjZhCQKoY5gVnMu-74" value="Amruta /&amp;nbsp;ଅମୃତ" style="rounded=1;whiteSpace=wrap;html=1;fillColor=#FFDEFC;strokeColor=#ae4132;fontStyle=1;fontSize=14;" vertex="1" parent="6-QbLFjZhCQKoY5gVnMu-72">
          <mxGeometry x="0.004324324324329609" y="47.5" width="155.67567567567565" height="47.5" as="geometry" />
        </mxCell>
        <mxCell id="6-QbLFjZhCQKoY5gVnMu-84" value="" style="group;fontSize=14;" vertex="1" connectable="0" parent="1">
          <mxGeometry x="890" y="786" width="155.67999999999995" height="95" as="geometry" />
        </mxCell>
        <mxCell id="6-QbLFjZhCQKoY5gVnMu-85" value="Chintamani / ଚିନ୍ତାମଣି" style="rounded=1;whiteSpace=wrap;html=1;fillColor=#b0e3e6;strokeColor=#0e8088;fontStyle=1;fontSize=14;" vertex="1" parent="6-QbLFjZhCQKoY5gVnMu-84">
          <mxGeometry width="155.67567567567565" height="47.5" as="geometry" />
        </mxCell>
        <mxCell id="6-QbLFjZhCQKoY5gVnMu-86" value="Saraswati /&amp;nbsp;ସରସ୍ବତୀ" style="rounded=1;whiteSpace=wrap;html=1;fillColor=#FFDEFC;strokeColor=#ae4132;fontStyle=1;fontSize=14;" vertex="1" parent="6-QbLFjZhCQKoY5gVnMu-84">
          <mxGeometry x="0.004324324324329609" y="47.5" width="155.67567567567565" height="47.5" as="geometry" />
        </mxCell>
        <mxCell id="6-QbLFjZhCQKoY5gVnMu-90" value="" style="group;fontSize=14;" vertex="1" connectable="0" parent="1">
          <mxGeometry x="520" y="785" width="155.67999999999995" height="143.5" as="geometry" />
        </mxCell>
        <mxCell id="6-QbLFjZhCQKoY5gVnMu-69" value="" style="group;fontSize=14;" vertex="1" connectable="0" parent="6-QbLFjZhCQKoY5gVnMu-90">
          <mxGeometry width="155.67999999999995" height="95" as="geometry" />
        </mxCell>
        <mxCell id="6-QbLFjZhCQKoY5gVnMu-70" value="Sadananda / ସଦାନନ୍ଦ" style="rounded=1;whiteSpace=wrap;html=1;fillColor=#b0e3e6;strokeColor=#0e8088;fontStyle=1;fontSize=14;" vertex="1" parent="6-QbLFjZhCQKoY5gVnMu-69">
          <mxGeometry width="155.67567567567565" height="47.5" as="geometry" />
        </mxCell>
        <mxCell id="6-QbLFjZhCQKoY5gVnMu-71" value="Neelabati /&amp;nbsp;ନୀଳାବତୀ" style="rounded=1;whiteSpace=wrap;html=1;fillColor=#FFDEFC;strokeColor=#ae4132;fontStyle=1;fontSize=14;" vertex="1" parent="6-QbLFjZhCQKoY5gVnMu-69">
          <mxGeometry x="0.004324324324329609" y="47.5" width="155.67567567567565" height="47.5" as="geometry" />
        </mxCell>
        <mxCell id="6-QbLFjZhCQKoY5gVnMu-89" value="Mukta /&amp;nbsp;ମୁକ୍ତା" style="rounded=1;whiteSpace=wrap;html=1;fillColor=#FFDEFC;strokeColor=#ae4132;fontStyle=1;fontSize=14;" vertex="1" parent="6-QbLFjZhCQKoY5gVnMu-90">
          <mxGeometry x="0.004324324324329609" y="96" width="155.67567567567565" height="47.5" as="geometry" />
        </mxCell>
        <mxCell id="6-QbLFjZhCQKoY5gVnMu-67" value="Dhaneswara / ଧନେଶ୍ୱର" style="rounded=1;whiteSpace=wrap;html=1;fillColor=#b0e3e6;strokeColor=#0e8088;fontStyle=1;fontSize=14;" vertex="1" parent="1">
          <mxGeometry x="690" y="785" width="155.67567567567565" height="47.5" as="geometry" />
        </mxCell>
        <mxCell id="6-QbLFjZhCQKoY5gVnMu-44" value="Markanda / ମାର୍କଣ୍ଡ" style="rounded=1;whiteSpace=wrap;html=1;fillColor=#b0e3e6;strokeColor=#0e8088;fontStyle=1;fontSize=14;" vertex="1" parent="1">
          <mxGeometry x="10" y="785" width="155.67567567567565" height="47.5" as="geometry" />
        </mxCell>
        <mxCell id="6-QbLFjZhCQKoY5gVnMu-92" value="" style="group;fontSize=14;" vertex="1" connectable="0" parent="1">
          <mxGeometry x="1060" y="786" width="155.68000000000006" height="142.5" as="geometry" />
        </mxCell>
        <mxCell id="6-QbLFjZhCQKoY5gVnMu-81" value="" style="group;fontSize=14;" vertex="1" connectable="0" parent="6-QbLFjZhCQKoY5gVnMu-92">
          <mxGeometry width="155.67999999999995" height="95" as="geometry" />
        </mxCell>
        <mxCell id="6-QbLFjZhCQKoY5gVnMu-82" value="Lokeswara / ଲୋକେଶ୍ୱର" style="rounded=1;whiteSpace=wrap;html=1;fillColor=#b0e3e6;strokeColor=#0e8088;fontStyle=1;fontSize=14;" vertex="1" parent="6-QbLFjZhCQKoY5gVnMu-81">
          <mxGeometry width="155.67567567567565" height="47.5" as="geometry" />
        </mxCell>
        <mxCell id="6-QbLFjZhCQKoY5gVnMu-83" value="Lalita /&amp;nbsp;ଲଳିତା" style="rounded=1;whiteSpace=wrap;html=1;fillColor=#FFDEFC;strokeColor=#ae4132;fontStyle=1;fontSize=14;" vertex="1" parent="6-QbLFjZhCQKoY5gVnMu-81">
          <mxGeometry x="0.004324324324329609" y="47.5" width="155.67567567567565" height="47.5" as="geometry" />
        </mxCell>
        <mxCell id="6-QbLFjZhCQKoY5gVnMu-91" value="Gunabati /&amp;nbsp;ଗୁଣବତୀ" style="rounded=1;whiteSpace=wrap;html=1;fillColor=#FFDEFC;strokeColor=#ae4132;fontStyle=1;fontSize=14;" vertex="1" parent="6-QbLFjZhCQKoY5gVnMu-92">
          <mxGeometry x="0.004324324324443296" y="95" width="155.67567567567565" height="47.5" as="geometry" />
        </mxCell>
        <mxCell id="6-QbLFjZhCQKoY5gVnMu-93" value="We are like monark butterflies. Generations spent in making what we are today." style="text;html=1;align=center;verticalAlign=middle;whiteSpace=wrap;rounded=0;fontSize=14;" vertex="1" parent="1">
          <mxGeometry x="810" y="1390" width="620" height="50" as="geometry" />
        </mxCell>
        <mxCell id="6-QbLFjZhCQKoY5gVnMu-94" value="" style="group;fontSize=14;" vertex="1" connectable="0" parent="1">
          <mxGeometry x="1830" y="440" width="155.67999999999995" height="95" as="geometry" />
        </mxCell>
        <mxCell id="6-QbLFjZhCQKoY5gVnMu-95" value="Ramachandra / ରାମଚନ୍ଦ୍ର" style="rounded=1;whiteSpace=wrap;html=1;fillColor=#b0e3e6;strokeColor=#0e8088;fontStyle=1;fontSize=14;" vertex="1" parent="6-QbLFjZhCQKoY5gVnMu-94">
          <mxGeometry width="155.67567567567565" height="47.5" as="geometry" />
        </mxCell>
        <mxCell id="6-QbLFjZhCQKoY5gVnMu-96" value="Rachakumari /&amp;nbsp;ରଚକୁମାରୀ" style="rounded=1;whiteSpace=wrap;html=1;fillColor=#FFDEFC;strokeColor=#ae4132;fontStyle=1;fontSize=14;" vertex="1" parent="6-QbLFjZhCQKoY5gVnMu-94">
          <mxGeometry x="0.004324324324329609" y="47.5" width="155.67567567567565" height="47.5" as="geometry" />
        </mxCell>
        <mxCell id="6-QbLFjZhCQKoY5gVnMu-97" value="" style="group;fontSize=14;" vertex="1" connectable="0" parent="1">
          <mxGeometry x="2000" y="440" width="155.67999999999995" height="95" as="geometry" />
        </mxCell>
        <mxCell id="6-QbLFjZhCQKoY5gVnMu-98" value="Lakhmana /&amp;nbsp;ଲକ୍ଷ୍ମଣ" style="rounded=1;whiteSpace=wrap;html=1;fillColor=#b0e3e6;strokeColor=#0e8088;fontStyle=1;fontSize=14;" vertex="1" parent="6-QbLFjZhCQKoY5gVnMu-97">
          <mxGeometry width="155.67567567567565" height="47.5" as="geometry" />
        </mxCell>
        <mxCell id="6-QbLFjZhCQKoY5gVnMu-99" value="Sabitri /&amp;nbsp;ସାବିତ୍ରୀ" style="rounded=1;whiteSpace=wrap;html=1;fillColor=#FFDEFC;strokeColor=#ae4132;fontStyle=1;fontSize=14;" vertex="1" parent="6-QbLFjZhCQKoY5gVnMu-97">
          <mxGeometry x="0.004324324324329609" y="47.5" width="155.67567567567565" height="47.5" as="geometry" />
        </mxCell>
        <mxCell id="6-QbLFjZhCQKoY5gVnMu-100" value="" style="group;fontSize=14;" vertex="1" connectable="0" parent="1">
          <mxGeometry x="2170" y="440" width="155.67999999999995" height="95" as="geometry" />
        </mxCell>
        <mxCell id="6-QbLFjZhCQKoY5gVnMu-101" value="Banamali / ବନମାଳୀ" style="rounded=1;whiteSpace=wrap;html=1;fillColor=#b0e3e6;strokeColor=#0e8088;fontStyle=1;fontSize=14;" vertex="1" parent="6-QbLFjZhCQKoY5gVnMu-100">
          <mxGeometry width="155.67567567567565" height="47.5" as="geometry" />
        </mxCell>
        <mxCell id="6-QbLFjZhCQKoY5gVnMu-102" value="Satyakumari /&amp;nbsp;ସତ୍ୟକୁମାରୀ" style="rounded=1;whiteSpace=wrap;html=1;fillColor=#FFDEFC;strokeColor=#ae4132;fontStyle=1;fontSize=14;" vertex="1" parent="6-QbLFjZhCQKoY5gVnMu-100">
          <mxGeometry x="0.004324324324329609" y="47.5" width="155.67567567567565" height="47.5" as="geometry" />
        </mxCell>
        <mxCell id="6-QbLFjZhCQKoY5gVnMu-103" value="" style="group;fontSize=14;" vertex="1" connectable="0" parent="1">
          <mxGeometry x="1260" y="440" width="155.67999999999995" height="95" as="geometry" />
        </mxCell>
        <mxCell id="6-QbLFjZhCQKoY5gVnMu-104" value="Manarakhani / ମନରାଖନି" style="rounded=1;whiteSpace=wrap;html=1;fillColor=#b0e3e6;strokeColor=#0e8088;fontStyle=1;fontSize=14;" vertex="1" parent="6-QbLFjZhCQKoY5gVnMu-103">
          <mxGeometry width="155.67567567567565" height="47.5" as="geometry" />
        </mxCell>
        <mxCell id="6-QbLFjZhCQKoY5gVnMu-105" value="Balamati /&amp;nbsp;ବାଲମତି" style="rounded=1;whiteSpace=wrap;html=1;fillColor=#FFDEFC;strokeColor=#ae4132;fontStyle=1;fontSize=14;" vertex="1" parent="6-QbLFjZhCQKoY5gVnMu-103">
          <mxGeometry x="0.004324324324329609" y="47.5" width="155.67567567567565" height="47.5" as="geometry" />
        </mxCell>
        <mxCell id="6-QbLFjZhCQKoY5gVnMu-110" value="" style="group;fontSize=14;" vertex="1" connectable="0" parent="1">
          <mxGeometry x="1260" y="610" width="155.67999999999995" height="95" as="geometry" />
        </mxCell>
        <mxCell id="6-QbLFjZhCQKoY5gVnMu-111" value="Madhoram /&amp;nbsp;&lt;span style=&quot;background-color: initial; font-size: 14px;&quot;&gt;ମାଧୋରାମ&lt;/span&gt;" style="rounded=1;whiteSpace=wrap;html=1;fillColor=#b0e3e6;strokeColor=#0e8088;fontStyle=1;fontSize=14;" vertex="1" parent="6-QbLFjZhCQKoY5gVnMu-110">
          <mxGeometry width="155.67567567567565" height="47.5" as="geometry" />
        </mxCell>
        <mxCell id="6-QbLFjZhCQKoY5gVnMu-112" value="Sapur / ସପୁର" style="rounded=1;whiteSpace=wrap;html=1;fillColor=#FFDEFC;strokeColor=#ae4132;fontStyle=1;fontSize=14;" vertex="1" parent="6-QbLFjZhCQKoY5gVnMu-110">
          <mxGeometry x="0.004324324324329609" y="47.5" width="155.67567567567565" height="47.5" as="geometry" />
        </mxCell>
        <mxCell id="6-QbLFjZhCQKoY5gVnMu-117" value="" style="group;fontSize=14;" vertex="1" connectable="0" parent="1">
          <mxGeometry x="1260" y="786" width="155.68000000000006" height="142.5" as="geometry" />
        </mxCell>
        <mxCell id="6-QbLFjZhCQKoY5gVnMu-118" value="" style="group;fontSize=14;" vertex="1" connectable="0" parent="6-QbLFjZhCQKoY5gVnMu-117">
          <mxGeometry width="155.67999999999995" height="95" as="geometry" />
        </mxCell>
        <mxCell id="6-QbLFjZhCQKoY5gVnMu-119" value="Gokul / ଗୋକୁଳ" style="rounded=1;whiteSpace=wrap;html=1;fillColor=#b0e3e6;strokeColor=#0e8088;fontStyle=1;fontSize=14;" vertex="1" parent="6-QbLFjZhCQKoY5gVnMu-118">
          <mxGeometry width="155.67567567567565" height="47.5" as="geometry" />
        </mxCell>
        <mxCell id="6-QbLFjZhCQKoY5gVnMu-120" value="Sebati /&amp;nbsp;ସେବତୀ" style="rounded=1;whiteSpace=wrap;html=1;fillColor=#FFDEFC;strokeColor=#ae4132;fontStyle=1;fontSize=14;" vertex="1" parent="6-QbLFjZhCQKoY5gVnMu-118">
          <mxGeometry x="0.004324324324329609" y="47.5" width="155.67567567567565" height="47.5" as="geometry" />
        </mxCell>
        <mxCell id="6-QbLFjZhCQKoY5gVnMu-121" value="Lakshmi /&amp;nbsp;ଲକ୍ଷ୍ମୀ" style="rounded=1;whiteSpace=wrap;html=1;fillColor=#FFDEFC;strokeColor=#ae4132;fontStyle=1;fontSize=14;" vertex="1" parent="6-QbLFjZhCQKoY5gVnMu-117">
          <mxGeometry x="0.004324324324443296" y="95" width="155.67567567567565" height="47.5" as="geometry" />
        </mxCell>
        <mxCell id="6-QbLFjZhCQKoY5gVnMu-123" value="" style="group;fontSize=14;" vertex="1" connectable="0" parent="1">
          <mxGeometry x="1460" y="610" width="155.67999999999995" height="95" as="geometry" />
        </mxCell>
        <mxCell id="6-QbLFjZhCQKoY5gVnMu-124" value="Madhusudan / ମଧୁସୂଦନ" style="rounded=1;whiteSpace=wrap;html=1;fillColor=#b0e3e6;strokeColor=#0e8088;fontStyle=1;fontSize=14;" vertex="1" parent="6-QbLFjZhCQKoY5gVnMu-123">
          <mxGeometry width="155.67567567567565" height="47.5" as="geometry" />
        </mxCell>
        <mxCell id="6-QbLFjZhCQKoY5gVnMu-125" value="Sabitri /&amp;nbsp;ସାବିତ୍ରୀ" style="rounded=1;whiteSpace=wrap;html=1;fillColor=#FFDEFC;strokeColor=#ae4132;fontStyle=1;fontSize=14;" vertex="1" parent="6-QbLFjZhCQKoY5gVnMu-123">
          <mxGeometry x="0.004324324324329609" y="47.5" width="155.67567567567565" height="47.5" as="geometry" />
        </mxCell>
        <mxCell id="6-QbLFjZhCQKoY5gVnMu-126" value="" style="group;fontSize=14;" vertex="1" connectable="0" parent="1">
          <mxGeometry x="1800" y="610" width="155.67999999999995" height="95" as="geometry" />
        </mxCell>
        <mxCell id="6-QbLFjZhCQKoY5gVnMu-127" value="Deenabandhu / ଦୀନବନ୍ଧୁ" style="rounded=1;whiteSpace=wrap;html=1;fillColor=#b0e3e6;strokeColor=#0e8088;fontStyle=1;fontSize=14;" vertex="1" parent="6-QbLFjZhCQKoY5gVnMu-126">
          <mxGeometry width="155.67567567567565" height="47.5" as="geometry" />
        </mxCell>
        <mxCell id="6-QbLFjZhCQKoY5gVnMu-128" value="Koushalya /&amp;nbsp;କୌଶଲ୍ୟା" style="rounded=1;whiteSpace=wrap;html=1;fillColor=#FFDEFC;strokeColor=#ae4132;fontStyle=1;fontSize=14;" vertex="1" parent="6-QbLFjZhCQKoY5gVnMu-126">
          <mxGeometry x="0.004324324324329609" y="47.5" width="155.67567567567565" height="47.5" as="geometry" />
        </mxCell>
        <mxCell id="6-QbLFjZhCQKoY5gVnMu-129" value="" style="group;fontSize=14;" vertex="1" connectable="0" parent="1">
          <mxGeometry x="1970" y="610" width="155.67999999999995" height="95" as="geometry" />
        </mxCell>
        <mxCell id="6-QbLFjZhCQKoY5gVnMu-130" value="Poulasti / ପୋୖଲସ୍ତି" style="rounded=1;whiteSpace=wrap;html=1;fillColor=#b0e3e6;strokeColor=#0e8088;fontStyle=1;fontSize=14;" vertex="1" parent="6-QbLFjZhCQKoY5gVnMu-129">
          <mxGeometry width="155.67567567567565" height="47.5" as="geometry" />
        </mxCell>
        <mxCell id="6-QbLFjZhCQKoY5gVnMu-131" value="Hira /&amp;nbsp;ହିରା" style="rounded=1;whiteSpace=wrap;html=1;fillColor=#FFDEFC;strokeColor=#ae4132;fontStyle=1;fontSize=14;" vertex="1" parent="6-QbLFjZhCQKoY5gVnMu-129">
          <mxGeometry x="0.004324324324329609" y="47.5" width="155.67567567567565" height="47.5" as="geometry" />
        </mxCell>
        <mxCell id="6-QbLFjZhCQKoY5gVnMu-132" value="Gomati /&amp;nbsp;ଗୋମତୀ" style="rounded=1;whiteSpace=wrap;html=1;fillColor=#FFDEFC;strokeColor=#ae4132;fontStyle=1;fontSize=14;" vertex="1" parent="1">
          <mxGeometry x="1800.0043243243244" y="707" width="155.67567567567565" height="47.5" as="geometry" />
        </mxCell>
        <mxCell id="6-QbLFjZhCQKoY5gVnMu-133" value="Sukamati /&amp;nbsp;ଶୁକମତି" style="rounded=1;whiteSpace=wrap;html=1;fillColor=#FFDEFC;strokeColor=#ae4132;fontStyle=1;fontSize=14;" vertex="1" parent="1">
          <mxGeometry x="1800.0043243243244" y="754.5" width="155.67567567567565" height="47.5" as="geometry" />
        </mxCell>
        <mxCell id="6-QbLFjZhCQKoY5gVnMu-137" value="" style="group;fontSize=14;" vertex="1" connectable="0" parent="1">
          <mxGeometry x="1460" y="788" width="155.67999999999995" height="95" as="geometry" />
        </mxCell>
        <mxCell id="6-QbLFjZhCQKoY5gVnMu-138" value="Gajendra / ଗଜେନ୍ଦ୍ର" style="rounded=1;whiteSpace=wrap;html=1;fillColor=#b0e3e6;strokeColor=#0e8088;fontStyle=1;fontSize=14;labelBackgroundColor=none;labelBorderColor=none;" vertex="1" parent="6-QbLFjZhCQKoY5gVnMu-137">
          <mxGeometry width="155.67567567567565" height="47.5" as="geometry" />
        </mxCell>
        <mxCell id="6-QbLFjZhCQKoY5gVnMu-139" value="Lalamati /&amp;nbsp;ଲାଲମତି" style="rounded=1;whiteSpace=wrap;html=1;fillColor=#FFDEFC;strokeColor=#ae4132;fontStyle=1;fontSize=14;" vertex="1" parent="6-QbLFjZhCQKoY5gVnMu-137">
          <mxGeometry x="0.004324324324329609" y="47.5" width="155.67567567567565" height="47.5" as="geometry" />
        </mxCell>
        <mxCell id="6-QbLFjZhCQKoY5gVnMu-141" value="" style="group;fontSize=14;" vertex="1" connectable="0" parent="1">
          <mxGeometry x="1020" y="991" width="155.67999999999995" height="95" as="geometry" />
        </mxCell>
        <mxCell id="6-QbLFjZhCQKoY5gVnMu-142" value="Gajendra / ଗଜେନ୍ଦ୍ର" style="rounded=1;whiteSpace=wrap;html=1;fillColor=#b0e3e6;strokeColor=#0e8088;fontStyle=1;fontSize=14;" vertex="1" parent="6-QbLFjZhCQKoY5gVnMu-141">
          <mxGeometry width="155.67567567567565" height="47.5" as="geometry" />
        </mxCell>
        <mxCell id="6-QbLFjZhCQKoY5gVnMu-143" value="Lalamati /&amp;nbsp;ଲାଲମତି" style="rounded=1;whiteSpace=wrap;html=1;fillColor=#FFDEFC;strokeColor=#ae4132;fontStyle=1;fontSize=14;" vertex="1" parent="6-QbLFjZhCQKoY5gVnMu-141">
          <mxGeometry x="0.004324324324329609" y="47.5" width="155.67567567567565" height="47.5" as="geometry" />
        </mxCell>
        <mxCell id="6-QbLFjZhCQKoY5gVnMu-144" value="" style="group;fontSize=14;" vertex="1" connectable="0" parent="1">
          <mxGeometry x="1190" y="991" width="155.67999999999995" height="95" as="geometry" />
        </mxCell>
        <mxCell id="6-QbLFjZhCQKoY5gVnMu-145" value="Jagannath / ଗଜେନ୍ଦ୍ର" style="rounded=1;whiteSpace=wrap;html=1;fillColor=#b0e3e6;strokeColor=#0e8088;fontStyle=1;fontSize=14;" vertex="1" parent="6-QbLFjZhCQKoY5gVnMu-144">
          <mxGeometry width="155.67567567567565" height="47.5" as="geometry" />
        </mxCell>
        <mxCell id="6-QbLFjZhCQKoY5gVnMu-146" value="Lalamati /&amp;nbsp;ଲାଲମତି" style="rounded=1;whiteSpace=wrap;html=1;fillColor=#FFDEFC;strokeColor=#ae4132;fontStyle=1;fontSize=14;" vertex="1" parent="6-QbLFjZhCQKoY5gVnMu-144">
          <mxGeometry x="0.004324324324329609" y="47.5" width="155.67567567567565" height="47.5" as="geometry" />
        </mxCell>
        <mxCell id="6-QbLFjZhCQKoY5gVnMu-147" value="" style="group;fontSize=14;" vertex="1" connectable="0" parent="1">
          <mxGeometry x="1360" y="991" width="155.67999999999995" height="95" as="geometry" />
        </mxCell>
        <mxCell id="6-QbLFjZhCQKoY5gVnMu-148" value="Gajendra / ଗଜେନ୍ଦ୍ର" style="rounded=1;whiteSpace=wrap;html=1;fillColor=#b0e3e6;strokeColor=#0e8088;fontStyle=1;fontSize=14;" vertex="1" parent="6-QbLFjZhCQKoY5gVnMu-147">
          <mxGeometry width="155.67567567567565" height="47.5" as="geometry" />
        </mxCell>
        <mxCell id="6-QbLFjZhCQKoY5gVnMu-149" value="Lalamati /&amp;nbsp;ଲାଲମତି" style="rounded=1;whiteSpace=wrap;html=1;fillColor=#FFDEFC;strokeColor=#ae4132;fontStyle=1;fontSize=14;" vertex="1" parent="6-QbLFjZhCQKoY5gVnMu-147">
          <mxGeometry x="0.004324324324329609" y="47.5" width="155.67567567567565" height="47.5" as="geometry" />
        </mxCell>
        <mxCell id="6-QbLFjZhCQKoY5gVnMu-150" value="" style="group;fontSize=14;" vertex="1" connectable="0" parent="1">
          <mxGeometry x="1530" y="991" width="155.67999999999995" height="95" as="geometry" />
        </mxCell>
        <mxCell id="6-QbLFjZhCQKoY5gVnMu-151" value="Lingaraj / ଗଜେନ୍ଦ୍ର" style="rounded=1;whiteSpace=wrap;html=1;fillColor=#b0e3e6;strokeColor=#0e8088;fontStyle=1;fontSize=14;" vertex="1" parent="6-QbLFjZhCQKoY5gVnMu-150">
          <mxGeometry width="155.67567567567565" height="47.5" as="geometry" />
        </mxCell>
        <mxCell id="6-QbLFjZhCQKoY5gVnMu-152" value="Lalamati /&amp;nbsp;ଲାଲମତି" style="rounded=1;whiteSpace=wrap;html=1;fillColor=#FFDEFC;strokeColor=#ae4132;fontStyle=1;fontSize=14;" vertex="1" parent="6-QbLFjZhCQKoY5gVnMu-150">
          <mxGeometry x="0.004324324324329609" y="47.5" width="155.67567567567565" height="47.5" as="geometry" />
        </mxCell>
        <mxCell id="6-QbLFjZhCQKoY5gVnMu-153" value="" style="group;fontSize=14;" vertex="1" connectable="0" parent="1">
          <mxGeometry x="1700" y="991" width="155.67999999999995" height="95" as="geometry" />
        </mxCell>
        <mxCell id="6-QbLFjZhCQKoY5gVnMu-154" value="Panchanana / ଗଜେନ୍ଦ୍ର" style="rounded=1;whiteSpace=wrap;html=1;fillColor=#b0e3e6;strokeColor=#0e8088;fontStyle=1;fontSize=14;" vertex="1" parent="6-QbLFjZhCQKoY5gVnMu-153">
          <mxGeometry width="155.67567567567565" height="47.5" as="geometry" />
        </mxCell>
        <mxCell id="6-QbLFjZhCQKoY5gVnMu-155" value="Lalamati /&amp;nbsp;ଲାଲମତି" style="rounded=1;whiteSpace=wrap;html=1;fillColor=#FFDEFC;strokeColor=#ae4132;fontStyle=1;fontSize=14;" vertex="1" parent="6-QbLFjZhCQKoY5gVnMu-153">
          <mxGeometry x="0.004324324324329609" y="47.5" width="155.67567567567565" height="47.5" as="geometry" />
        </mxCell>
        <mxCell id="6-QbLFjZhCQKoY5gVnMu-156" value="" style="group;fontSize=14;" vertex="1" connectable="0" parent="1">
          <mxGeometry x="1870" y="991" width="155.67999999999995" height="95" as="geometry" />
        </mxCell>
        <mxCell id="6-QbLFjZhCQKoY5gVnMu-157" value="Fakir / ଗଜେନ୍ଦ୍ର" style="rounded=1;whiteSpace=wrap;html=1;fillColor=#b0e3e6;strokeColor=#0e8088;fontStyle=1;fontSize=14;" vertex="1" parent="6-QbLFjZhCQKoY5gVnMu-156">
          <mxGeometry width="155.67567567567565" height="47.5" as="geometry" />
        </mxCell>
        <mxCell id="6-QbLFjZhCQKoY5gVnMu-158" value="Balhabi /&amp;nbsp;ଲାଲମତି" style="rounded=1;whiteSpace=wrap;html=1;fillColor=#FFDEFC;strokeColor=#ae4132;fontStyle=1;fontSize=14;" vertex="1" parent="6-QbLFjZhCQKoY5gVnMu-156">
          <mxGeometry x="0.004324324324329609" y="47.5" width="155.67567567567565" height="47.5" as="geometry" />
        </mxCell>
        <mxCell id="6-QbLFjZhCQKoY5gVnMu-159" value="" style="group;fontSize=14;" vertex="1" connectable="0" parent="1">
          <mxGeometry x="2040" y="991" width="155.67999999999995" height="95" as="geometry" />
        </mxCell>
        <mxCell id="6-QbLFjZhCQKoY5gVnMu-160" value="Sarat / ଗଜେନ୍ଦ୍ର" style="rounded=1;whiteSpace=wrap;html=1;fillColor=#b0e3e6;strokeColor=#0e8088;fontStyle=1;fontSize=14;" vertex="1" parent="6-QbLFjZhCQKoY5gVnMu-159">
          <mxGeometry width="155.67567567567565" height="47.5" as="geometry" />
        </mxCell>
        <mxCell id="6-QbLFjZhCQKoY5gVnMu-161" value="Madhabi /&amp;nbsp;ଲାଲମତି" style="rounded=1;whiteSpace=wrap;html=1;fillColor=#FFDEFC;strokeColor=#ae4132;fontStyle=1;fontSize=14;" vertex="1" parent="6-QbLFjZhCQKoY5gVnMu-159">
          <mxGeometry x="0.004324324324329609" y="47.5" width="155.67567567567565" height="47.5" as="geometry" />
        </mxCell>
        <mxCell id="6-QbLFjZhCQKoY5gVnMu-168" value="Gajendra / ଗଜେନ୍ଦ୍ର" style="rounded=1;whiteSpace=wrap;html=1;fillColor=#b0e3e6;strokeColor=#0e8088;fontStyle=1;fontSize=14;" vertex="1" parent="1">
          <mxGeometry x="1615.68" y="788" width="155.67567567567565" height="47.5" as="geometry" />
        </mxCell>
      </root>
    </mxGraphModel>
  </diagram>
</mxfile>
